<svg width="24" height="37" viewBox="0 0 24 37" fill="none" xmlns="http://www.w3.org/2000/svg">
<path fill-rule="evenodd" clip-rule="evenodd" d="M24 3.52293C24 1.57727 22.4227 0 20.4771 0H3.52293C1.57727 0 0 1.57727 0 3.52293V32.8763C0 34.822 1.57727 36.3993 3.52294 36.3993H20.4771C22.4227 36.3993 24 34.822 24 32.8763V3.52293ZM15.1478 28.4328L19.2872 26.0216C19.4798 25.9095 19.6199 25.7253 19.6768 25.5099C19.7337 25.2943 19.7024 25.0651 19.5904 24.8727L18.9022 23.6915C18.636 23.2347 18.6764 22.6689 18.9388 22.2099C19.2015 21.7509 19.6691 21.4296 20.1979 21.4277L21.5648 21.4228C21.7876 21.422 22.001 21.3326 22.158 21.1745C22.3149 21.0163 22.4028 20.8023 22.402 20.5793L22.3844 15.7889C22.3836 15.566 22.2942 15.3525 22.136 15.1956C21.9787 15.0393 21.7658 14.9516 21.5441 14.9516H21.5409L20.1692 14.9571C19.6413 14.9592 19.1711 14.6446 18.9051 14.1887C18.6389 13.7324 18.5961 13.1665 18.8585 12.708L19.5404 11.5167C19.7708 11.1139 19.6312 10.6004 19.2285 10.3701L15.0714 7.99081C14.878 7.88012 14.6487 7.85087 14.4334 7.90911C14.2184 7.96764 14.0354 8.10912 13.9248 8.30261L13.2427 9.49422C12.9803 9.95272 12.4708 10.2027 11.9426 10.2043C11.4148 10.206 10.9054 9.95965 10.6398 9.50353L9.94915 8.31729C9.83699 8.12461 9.65278 7.98443 9.43744 7.92749C9.222 7.87071 8.99266 7.90173 8.80008 8.01389L4.66059 10.4253C4.25971 10.6588 4.12394 11.1732 4.35742 11.5742L5.04616 12.7569C5.31196 13.2133 5.27197 13.7788 5.00962 14.2372C4.74725 14.6958 4.27972 15.0167 3.75136 15.0188L2.38292 15.024C1.91887 15.0258 1.54418 15.4034 1.54588 15.8674L1.56345 20.6578C1.56434 20.8806 1.65363 21.0942 1.81185 21.2512C1.96923 21.4075 2.18202 21.4951 2.40375 21.4951H2.4069L3.77933 21.4899C4.30716 21.488 4.77712 21.8023 5.04308 22.2583C5.30924 22.7146 5.35234 23.2808 5.08995 23.7392L4.40818 24.9305C4.29749 25.124 4.26813 25.3533 4.3265 25.5685C4.38498 25.7835 4.52649 25.9665 4.71998 26.0772L8.87704 28.4564C9.00869 28.5316 9.1521 28.5674 9.29369 28.5674C9.58523 28.5674 9.86859 28.4156 10.0239 28.1444L10.706 26.9525C10.9683 26.4942 11.4786 26.2445 12.0066 26.2429C12.5343 26.2412 13.0426 26.4873 13.3081 26.9433L13.9989 28.1296C14.1112 28.3222 14.2953 28.4624 14.5107 28.5193C14.7259 28.5761 14.9552 28.5451 15.1478 28.4328ZM14.0362 24.8546C13.8567 24.5464 13.5016 24.3854 13.1524 24.4521C12.3986 24.5961 11.6082 24.5985 10.841 24.4595C10.4905 24.3959 10.1386 24.5598 9.96169 24.8689L9.75444 25.2311C9.32803 25.9762 8.37823 26.2346 7.63308 25.8081C6.88803 25.3817 6.62972 24.432 7.05613 23.6869L7.2635 23.3246C7.44041 23.0156 7.40334 22.6287 7.17118 22.359C6.6594 21.7644 6.26735 21.0924 6.00618 20.3616C5.88665 20.0272 5.56982 19.804 5.21495 19.804H5.21182L4.79609 19.8056C3.93726 19.8087 3.23846 19.1151 3.23528 18.2563C3.2321 17.3975 3.92565 16.6987 4.78442 16.6954L5.20009 16.6939C5.55605 16.6924 5.87255 16.467 5.99007 16.131C6.12519 15.7444 6.28161 15.398 6.46825 15.0722C6.65504 14.7458 6.8743 14.4356 7.13873 14.124C7.36916 13.8524 7.40326 13.4652 7.22418 13.1575L7.01485 12.798C6.5828 12.056 6.83393 11.1043 7.57582 10.672C8.31792 10.2397 9.27 10.4909 9.70222 11.2331L9.91103 11.5916C10.0902 11.8992 10.4435 12.0611 10.7933 11.9945C11.5518 11.8513 12.3427 11.8489 13.1069 11.9876C13.4568 12.0518 13.8095 11.8872 13.9863 11.5783L14.1937 11.216C14.6202 10.4708 15.5699 10.2125 16.3151 10.639C17.0602 11.0654 17.3185 12.0152 16.8921 12.7603L16.6847 13.1226C16.508 13.4315 16.545 13.8183 16.777 14.088C17.288 14.682 17.6803 15.3545 17.9429 16.0868C18.0627 16.4207 18.3793 16.6435 18.7339 16.6435H18.7373L19.1519 16.6418C20.0105 16.6384 20.7093 17.3318 20.7125 18.1905C20.7157 19.0491 20.0222 19.7477 19.1636 19.7507L18.7491 19.7522C18.3935 19.7536 18.0771 19.9786 17.9593 20.3141C17.8221 20.7042 17.6655 21.0512 17.4803 21.3751C17.2949 21.699 17.0751 22.0099 16.8082 22.3255C16.5786 22.5971 16.5448 22.9837 16.7238 23.2909L16.9324 23.6489C17.3648 24.3909 17.1137 25.3429 16.3716 25.7751C15.6296 26.2074 14.6777 25.9562 14.2456 25.2141L14.0362 24.8546ZM16.3593 17.0306C16.6778 18.202 16.5213 19.4274 15.9182 20.4809C15.1107 21.8921 13.5979 22.7688 11.9706 22.7687C11.1829 22.7687 10.4034 22.5609 9.71642 22.1678C7.54158 20.923 6.78487 18.1408 8.02954 15.9658C8.83725 14.5546 10.35 13.6779 11.9774 13.6779C12.765 13.6779 13.5445 13.8858 14.2315 14.279C15.285 14.8819 16.0408 15.8593 16.3593 17.0306ZM11.9704 21.0881C12.9968 21.0881 13.9507 20.5356 14.4597 19.6461C14.8397 18.9821 14.9384 18.21 14.7378 17.4717C14.5369 16.7335 14.0607 16.1177 13.3966 15.7377C12.9635 15.4896 12.4727 15.3585 11.9774 15.3585C10.9511 15.3585 9.99722 15.9112 9.48809 16.8006C8.70369 18.1714 9.18052 19.9247 10.5511 20.7092C10.9843 20.9571 11.4751 21.0881 11.9704 21.0881Z" fill="#5570F1"/>
</svg>
