<svg width="1004" height="317" viewBox="0 0 1004 317" fill="none" xmlns="http://www.w3.org/2000/svg">
<path fill-rule="evenodd" clip-rule="evenodd" d="M208.463 30.6C208.463 13.7001 194.762 0 177.863 0H30.6C13.7001 0 0 13.7001 0 30.6V285.562C0 302.462 13.7001 316.162 30.6 316.162H177.863C194.762 316.162 208.463 302.462 208.463 285.562V30.6ZM131.573 246.966L167.527 226.022C169.2 225.048 170.418 223.448 170.911 221.578C171.406 219.705 171.134 217.714 170.161 216.043L164.183 205.783C161.871 201.815 162.222 196.901 164.501 192.913C166.783 188.927 170.845 186.137 175.438 186.12L187.31 186.077C189.246 186.071 191.1 185.293 192.463 183.92C193.826 182.547 194.59 180.688 194.583 178.751L194.43 137.142C194.422 135.205 193.646 133.351 192.272 131.988C190.905 130.63 189.056 129.869 187.131 129.869H187.103L175.188 129.916C170.604 129.934 166.519 127.202 164.209 123.242C161.896 119.279 161.525 114.363 163.804 110.381L169.727 100.033C171.728 96.5346 170.516 92.0744 167.017 90.0737L130.909 69.4077C129.23 68.4462 127.238 68.1922 125.368 68.6981C123.5 69.2064 121.91 70.4353 120.95 72.116L115.026 82.4662C112.746 86.4487 108.321 88.6201 103.732 88.6343C99.1479 88.6485 94.7235 86.5089 92.4168 82.5471L86.4177 72.2435C85.4435 70.5698 83.8435 69.3523 81.9731 68.8577C80.1017 68.3645 78.1097 68.634 76.4369 69.6081L40.4816 90.5531C36.9996 92.5821 35.8203 97.05 37.8483 100.533L43.8307 110.806C46.1394 114.77 45.792 119.681 43.5133 123.663C41.2343 127.647 37.1734 130.435 32.5841 130.452L20.6979 130.498C16.6671 130.513 13.4127 133.793 13.4274 137.823L13.58 179.433C13.5877 181.368 14.3633 183.223 15.7376 184.586C17.1046 185.944 18.9529 186.705 20.8788 186.705H20.9062L32.8271 186.66C37.4118 186.643 41.4938 189.374 43.8039 193.334C46.1157 197.297 46.4901 202.215 44.211 206.198L38.2892 216.545C37.3277 218.225 37.0727 220.217 37.5798 222.086C38.0877 223.954 39.3168 225.544 40.9975 226.505L77.1054 247.17C78.249 247.824 79.4946 248.134 80.7244 248.134C83.2568 248.134 85.718 246.816 87.0667 244.461L92.9916 234.108C95.2697 230.127 99.7026 227.959 104.289 227.944C108.872 227.93 113.287 230.067 115.593 234.028L121.594 244.332C122.569 246.005 124.168 247.223 126.039 247.717C127.908 248.211 129.9 247.941 131.573 246.966ZM121.917 215.886C120.358 213.209 117.274 211.81 114.241 212.389C107.693 213.641 100.828 213.661 94.1644 212.453C91.1201 211.902 88.0631 213.325 86.5266 216.009L84.7265 219.155C81.0227 225.628 72.7728 227.872 66.3005 224.168C59.829 220.464 57.5854 212.215 61.2891 205.743L63.0903 202.596C64.627 199.912 64.305 196.552 62.2885 194.209C57.8431 189.045 54.4379 183.207 52.1693 176.859C51.1311 173.955 48.3791 172.017 45.2968 172.017H45.2696L41.6585 172.03C34.1988 172.058 28.1291 166.033 28.1015 158.573C28.0738 151.114 34.0979 145.044 41.5572 145.016L45.1677 145.002C48.2596 144.989 51.0086 143.031 52.0294 140.113C53.2031 136.755 54.5617 133.746 56.1828 130.916C57.8053 128.081 59.7097 125.386 62.0065 122.68C64.0081 120.321 64.3043 116.958 62.7488 114.285L60.9306 111.163C57.1778 104.718 59.3591 96.4509 65.8032 92.6966C72.249 88.9413 80.5187 91.1232 84.2729 97.5697L86.0867 100.684C87.6428 103.356 90.712 104.762 93.7495 104.184C100.338 102.94 107.208 102.919 113.846 104.123C116.885 104.681 119.948 103.251 121.484 100.569L123.286 97.4212C126.99 90.9491 135.24 88.7053 141.712 92.4094C148.184 96.1137 150.428 104.363 146.724 110.836L144.923 113.982C143.388 116.665 143.709 120.025 145.724 122.368C150.163 127.527 153.57 133.368 155.851 139.729C156.891 142.629 159.642 144.564 162.722 144.564H162.751L166.352 144.55C173.81 144.52 179.88 150.543 179.908 158.002C179.935 165.459 173.912 171.527 166.454 171.554L162.853 171.567C159.764 171.578 157.017 173.533 155.993 176.447C154.802 179.836 153.442 182.85 151.833 185.663C150.223 188.476 148.313 191.176 145.995 193.918C144.001 196.277 143.707 199.635 145.262 202.304L147.074 205.413C150.829 211.858 148.648 220.127 142.203 223.881C135.758 227.636 127.49 225.454 123.736 219.009L121.917 215.886ZM142.096 147.927C144.863 158.102 143.503 168.745 138.265 177.896C131.25 190.154 118.11 197.768 103.976 197.767C97.1339 197.767 90.3637 195.963 84.3962 192.548C65.5058 181.736 58.933 157.57 69.7441 138.678C76.7598 126.42 89.8997 118.806 104.035 118.806C110.876 118.806 117.647 120.611 123.614 124.027C132.765 129.263 139.33 137.753 142.096 147.927ZM103.975 183.17C112.889 183.17 121.175 178.371 125.596 170.645C128.897 164.878 129.754 158.171 128.011 151.758C126.267 145.346 122.13 139.997 116.362 136.696C112.6 134.542 108.337 133.403 104.035 133.403C95.1208 133.403 86.8352 138.203 82.413 145.929C75.5997 157.836 79.7414 173.065 91.6463 179.879C95.4087 182.032 99.6722 183.17 103.975 183.17Z" fill="#5570F1"/>
<path d="M325.663 106.281C331.933 106.281 337.793 107.551 343.263 110.081C348.593 112.621 353.263 116.081 357.263 120.481C361.263 124.751 364.393 129.821 366.663 135.681C368.933 141.421 370.063 147.621 370.063 154.281C370.063 160.821 368.933 167.021 366.663 172.881C364.393 178.621 361.263 183.681 357.263 188.081C353.263 192.481 348.533 195.951 343.063 198.481C337.733 201.021 331.933 202.281 325.663 202.281C321.393 202.281 317.393 201.681 313.663 200.481C310.063 199.281 306.793 197.681 303.863 195.681C301.463 193.951 299.263 191.951 297.263 189.681V244.481H280.463V107.681H297.263V116.481C298.463 115.421 299.863 114.351 301.463 113.281C304.263 111.281 307.593 109.621 311.463 108.281C315.593 106.951 320.333 106.281 325.663 106.281ZM314.263 183.281C317.593 184.881 321.193 185.681 325.063 185.681C328.933 185.681 332.533 184.881 335.863 183.281C339.333 181.681 342.333 179.481 344.863 176.681C347.533 173.751 349.593 170.351 351.063 166.481C352.533 162.621 353.263 158.551 353.263 154.281C353.263 149.881 352.533 145.751 351.063 141.881C349.593 138.021 347.533 134.621 344.863 131.681C342.333 128.881 339.333 126.681 335.863 125.081C332.393 123.481 328.733 122.681 324.863 122.681C321.133 122.681 317.593 123.481 314.263 125.081C310.793 126.681 307.733 128.951 305.063 131.881C302.533 134.681 300.463 138.021 298.863 141.881C297.393 145.751 296.663 149.881 296.663 154.281C296.663 158.551 297.393 162.621 298.863 166.481C300.463 170.351 302.533 173.751 305.063 176.681C307.733 179.481 310.793 181.681 314.263 183.281Z" fill="black"/>
<path d="M442.062 200.081C438.332 201.151 434.462 201.681 430.462 201.681C423.932 201.681 417.932 200.421 412.462 197.881C406.862 195.351 402.062 191.951 398.062 187.681C394.062 183.281 390.862 178.221 388.462 172.481C386.192 166.621 385.062 160.421 385.062 153.881C385.062 147.351 386.192 141.151 388.462 135.281C390.732 129.421 393.862 124.281 397.862 119.881C401.992 115.481 406.792 112.021 412.262 109.481C417.862 106.951 423.932 105.681 430.462 105.681C434.592 105.681 438.532 106.221 442.262 107.281C445.992 108.481 449.392 110.021 452.462 111.881C454.992 113.481 457.192 115.351 459.062 117.481L459.262 105.881C463.662 105.881 467.392 107.481 470.462 110.681C473.662 113.881 475.262 117.681 475.262 122.081V200.281C464.332 200.281 458.862 196.881 458.862 190.081C456.992 192.221 454.733 194.081 452.062 195.681C448.993 197.681 445.662 199.151 442.062 200.081ZM441.662 124.681C438.332 123.081 434.592 122.281 430.462 122.281C426.192 122.281 422.332 123.081 418.862 124.681C415.392 126.281 412.332 128.551 409.662 131.481C407.132 134.281 405.132 137.621 403.662 141.481C402.332 145.351 401.662 149.481 401.662 153.881C401.662 158.281 402.332 162.421 403.662 166.281C405.132 170.021 407.132 173.281 409.662 176.081C412.332 178.881 415.392 181.151 418.862 182.881C422.332 184.481 426.132 185.281 430.262 185.281C434.392 185.281 438.192 184.481 441.662 182.881C445.132 181.281 448.132 179.081 450.662 176.281C453.192 173.481 455.192 170.151 456.662 166.281C457.992 162.551 458.662 158.421 458.662 153.881C458.662 149.481 457.932 145.351 456.462 141.481C455.132 137.621 453.192 134.281 450.662 131.481C448.262 128.551 445.262 126.281 441.662 124.681Z" fill="black"/>
<path d="M557.063 239.481C551.593 241.481 545.993 242.481 540.263 242.481C535.333 242.481 530.933 241.881 527.063 240.681C523.193 239.481 519.463 237.951 515.863 236.081V235.881C514.933 235.481 514.193 235.021 513.663 234.481C515.533 231.421 517.333 228.951 519.063 227.081C520.793 225.351 522.533 224.281 524.263 223.881C525.993 223.621 527.333 223.481 528.263 223.481C529.333 223.621 530.733 223.951 532.463 224.481C532.863 224.621 533.133 224.681 533.263 224.681C535.533 225.221 537.663 225.481 539.663 225.481C543.393 225.481 546.993 224.881 550.463 223.681C553.933 222.481 556.993 220.621 559.663 218.081C562.593 215.421 564.733 212.351 566.063 208.881C567.663 204.881 568.463 198.681 568.463 190.281C566.333 192.551 563.863 194.481 561.063 196.081C557.993 197.951 554.663 199.351 551.063 200.281C547.333 201.221 543.533 201.681 539.663 201.681C533.133 201.681 527.133 200.421 521.663 197.881C516.063 195.351 511.263 191.951 507.263 187.681C503.263 183.281 500.063 178.221 497.663 172.481C495.393 166.621 494.263 160.421 494.263 153.881C494.263 147.221 495.393 141.021 497.663 135.281C499.933 129.421 503.063 124.281 507.063 119.881C511.193 115.481 515.993 112.021 521.463 109.481C527.063 106.951 533.133 105.681 539.663 105.681C543.793 105.681 547.733 106.221 551.463 107.281C555.333 108.351 558.863 109.881 562.063 111.881C564.733 113.621 567.133 115.551 569.263 117.681C569.263 115.551 569.793 113.621 570.863 111.881C571.933 110.021 573.333 108.551 575.063 107.481C576.933 106.421 578.993 105.881 581.263 105.881H585.463V184.281C585.463 190.681 585.393 194.281 585.263 195.081C585.263 202.821 583.993 209.681 581.463 215.681C579.063 221.681 575.793 226.681 571.663 230.681C567.533 234.681 562.663 237.621 557.063 239.481ZM551.063 124.681C547.593 123.081 543.793 122.281 539.663 122.281C535.393 122.281 531.533 123.081 528.063 124.681C524.593 126.281 521.533 128.551 518.863 131.481C516.333 134.281 514.333 137.621 512.863 141.481C511.533 145.351 510.863 149.481 510.863 153.881C510.863 158.281 511.533 162.421 512.863 166.281C514.333 170.021 516.333 173.281 518.863 176.081C521.533 178.881 524.593 181.151 528.063 182.881C531.533 184.481 535.333 185.281 539.463 185.281C543.593 185.281 547.463 184.481 551.063 182.881C554.663 181.281 557.733 179.081 560.263 176.281C562.933 173.481 564.993 170.151 566.463 166.281C568.063 162.421 568.863 158.281 568.863 153.881C568.863 149.621 568.063 145.551 566.463 141.681C564.993 137.821 562.933 134.481 560.263 131.681C557.733 128.751 554.663 126.421 551.063 124.681Z" fill="black"/>
<path d="M769.663 239.481C764.193 241.481 758.593 242.481 752.863 242.481C747.933 242.481 743.533 241.881 739.663 240.681C735.793 239.481 732.063 237.951 728.463 236.081V235.881C727.533 235.481 726.793 235.021 726.263 234.481C728.133 231.421 729.933 228.951 731.663 227.081C733.393 225.351 735.133 224.281 736.863 223.881C738.593 223.621 739.933 223.481 740.863 223.481C741.933 223.621 743.333 223.951 745.063 224.481C745.463 224.621 745.733 224.681 745.863 224.681C748.133 225.221 750.263 225.481 752.263 225.481C755.993 225.481 759.593 224.881 763.063 223.681C766.533 222.481 769.593 220.621 772.263 218.081C775.193 215.421 777.333 212.351 778.663 208.881C780.263 204.881 781.063 198.681 781.063 190.281C778.933 192.551 776.463 194.481 773.663 196.081C770.593 197.951 767.263 199.351 763.663 200.281C759.933 201.221 756.133 201.681 752.263 201.681C745.733 201.681 739.733 200.421 734.263 197.881C728.663 195.351 723.863 191.951 719.863 187.681C715.863 183.281 712.663 178.221 710.263 172.481C707.993 166.621 706.863 160.421 706.863 153.881C706.863 147.221 707.993 141.021 710.263 135.281C712.533 129.421 715.663 124.281 719.663 119.881C723.793 115.481 728.593 112.021 734.063 109.481C739.663 106.951 745.733 105.681 752.263 105.681C756.393 105.681 760.333 106.221 764.063 107.281C767.933 108.351 771.463 109.881 774.663 111.881C777.333 113.621 779.733 115.551 781.863 117.681C781.863 115.551 782.393 113.621 783.463 111.881C784.533 110.021 785.933 108.551 787.663 107.481C789.533 106.421 791.593 105.881 793.863 105.881H798.063V184.281C798.063 190.681 797.993 194.281 797.863 195.081C797.863 202.821 796.593 209.681 794.063 215.681C791.663 221.681 788.393 226.681 784.263 230.681C780.133 234.681 775.263 237.621 769.663 239.481ZM763.663 124.681C760.193 123.081 756.393 122.281 752.263 122.281C747.993 122.281 744.133 123.081 740.663 124.681C737.193 126.281 734.133 128.551 731.463 131.481C728.933 134.281 726.933 137.621 725.463 141.481C724.133 145.351 723.463 149.481 723.463 153.881C723.463 158.281 724.133 162.421 725.463 166.281C726.933 170.021 728.933 173.281 731.463 176.081C734.133 178.881 737.193 181.151 740.663 182.881C744.133 184.481 747.933 185.281 752.063 185.281C756.193 185.281 760.063 184.481 763.663 182.881C767.263 181.281 770.333 179.081 772.863 176.281C775.533 173.481 777.593 170.151 779.063 166.281C780.663 162.421 781.463 158.281 781.463 153.881C781.463 149.621 780.663 145.551 779.063 141.681C777.593 137.821 775.533 134.481 772.863 131.681C770.333 128.751 767.263 126.421 763.663 124.681Z" fill="#5570F1"/>
<path d="M666.263 199.281C661.733 200.881 656.793 201.681 651.463 201.681C644.793 201.681 638.533 200.421 632.663 197.881C626.933 195.351 621.863 191.951 617.463 187.681C613.193 183.281 609.793 178.221 607.263 172.481C604.733 166.621 603.463 160.421 603.463 153.881C603.463 147.221 604.663 140.951 607.063 135.081C609.593 129.221 612.933 124.151 617.063 119.881C621.193 115.481 626.063 112.021 631.663 109.481C637.393 106.951 643.463 105.681 649.863 105.681C655.993 105.681 661.793 106.881 667.263 109.281C672.733 111.681 677.463 115.021 681.463 119.281C685.593 123.421 688.863 128.351 691.263 134.081C693.663 139.821 694.863 146.021 694.863 152.681C694.863 155.881 693.663 158.081 691.263 159.281C689.663 160.081 687.793 160.481 685.663 160.481H620.463C620.993 163.151 621.863 165.681 623.063 168.081C624.793 171.681 627.063 174.751 629.863 177.281C632.663 179.821 635.933 181.821 639.663 183.281C643.263 184.751 647.133 185.481 651.263 185.481C654.733 185.481 658.063 184.951 661.263 183.881C661.533 183.881 662.193 183.681 663.263 183.281C664.463 182.751 665.333 182.481 665.863 182.481C666.393 182.351 667.193 182.221 668.263 182.081C669.463 181.821 670.463 181.881 671.263 182.281C672.193 182.551 673.193 183.021 674.263 183.681C675.463 184.221 676.663 185.081 677.863 186.281C679.193 187.481 680.533 188.951 681.863 190.681C680.933 191.621 679.993 192.421 679.063 193.081C675.063 195.751 670.793 197.821 666.263 199.281ZM625.863 145.081H677.863C677.333 142.681 676.533 140.421 675.463 138.281C673.733 135.081 671.533 132.281 668.863 129.881C666.333 127.351 663.463 125.421 660.263 124.081C656.933 122.751 653.393 122.081 649.663 122.081C645.933 122.081 642.463 122.751 639.263 124.081C635.793 125.421 632.793 127.281 630.263 129.681C627.993 131.821 625.733 134.681 623.463 138.281C622.533 139.751 621.793 141.351 621.263 143.081C620.733 144.681 620.393 145.951 620.263 146.881V148.281C622.393 146.151 624.263 145.081 625.863 145.081Z" fill="black"/>
<path d="M878.864 199.281C874.334 200.881 869.393 201.681 864.063 201.681C857.393 201.681 851.134 200.421 845.264 197.881C839.534 195.351 834.463 191.951 830.063 187.681C825.793 183.281 822.394 178.221 819.864 172.481C817.334 166.621 816.063 160.421 816.063 153.881C816.063 147.221 817.263 140.951 819.663 135.081C822.193 129.221 825.533 124.151 829.663 119.881C833.793 115.481 838.664 112.021 844.264 109.481C849.994 106.951 856.064 105.681 862.464 105.681C868.594 105.681 874.394 106.881 879.864 109.281C885.334 111.681 890.063 115.021 894.063 119.281C898.193 123.421 901.464 128.351 903.864 134.081C906.264 139.821 907.464 146.021 907.464 152.681C907.464 155.881 906.264 158.081 903.864 159.281C902.264 160.081 900.394 160.481 898.264 160.481H833.063C833.593 163.151 834.463 165.681 835.663 168.081C837.393 171.681 839.664 174.751 842.464 177.281C845.264 179.821 848.534 181.821 852.264 183.281C855.864 184.751 859.734 185.481 863.864 185.481C867.334 185.481 870.664 184.951 873.864 183.881C874.134 183.881 874.794 183.681 875.864 183.281C877.064 182.751 877.934 182.481 878.464 182.481C878.994 182.351 879.794 182.221 880.864 182.081C882.064 181.821 883.064 181.881 883.864 182.281C884.794 182.551 885.794 183.021 886.864 183.681C888.064 184.221 889.264 185.081 890.464 186.281C891.794 187.481 893.134 188.951 894.464 190.681C893.534 191.621 892.593 192.421 891.663 193.081C887.663 195.751 883.394 197.821 878.864 199.281ZM838.464 145.081H890.464C889.934 142.681 889.133 140.421 888.063 138.281C886.333 135.081 884.134 132.281 881.464 129.881C878.934 127.351 876.064 125.421 872.864 124.081C869.534 122.751 865.994 122.081 862.264 122.081C858.534 122.081 855.064 122.751 851.864 124.081C848.394 125.421 845.394 127.281 842.864 129.681C840.594 131.821 838.333 134.681 836.063 138.281C835.133 139.751 834.394 141.351 833.864 143.081C833.334 144.681 832.994 145.951 832.864 146.881V148.281C834.994 146.151 836.864 145.081 838.464 145.081Z" fill="#5570F1"/>
<path d="M1003.46 199.881L987.063 200.081V144.881C986.933 141.821 986.263 138.821 985.063 135.881C983.863 133.081 982.263 130.621 980.263 128.481C978.393 126.481 976.063 124.881 973.263 123.681C970.593 122.481 967.463 121.881 963.863 121.881C960.793 121.881 957.863 122.481 955.063 123.681C952.263 124.881 949.793 126.421 947.663 128.281C945.663 130.421 943.993 132.821 942.663 135.481C941.463 138.151 940.863 141.021 940.863 144.081V200.281H924.463V105.881L940.863 105.881V115.081C942.733 113.351 944.863 111.821 947.263 110.481C949.933 108.881 952.793 107.681 955.863 106.881C958.933 106.081 962.063 105.681 965.263 105.681C970.733 105.681 975.793 106.751 980.463 108.881C985.133 110.881 989.133 113.681 992.463 117.281C995.933 120.881 998.593 125.081 1000.46 129.881C1002.46 134.681 1003.46 139.751 1003.46 145.081V199.881Z" fill="#5570F1"/>
</svg>
